{
  "accessors": [
    {
      "bufferView": 1,
      "componentType": 5126,
      "count": 65532,
      "max": [
        0.39514464139938354,
        0.5866127610206604,
        1.7890702486038208
      ],
      "min": [
        -0.5445693135261536,
        -0.39199310541152954,
        -0.1383390724658966
      ],
      "type": "VEC3"
    },
    {
      "bufferView": 1,
      "byteOffset": 786384,
      "componentType": 5126,
      "count": 65532,
      "max": [
        0.9999944567680359,
        0.9999861717224121,
        1.0
      ],
      "min": [
        -0.9999507665634155,
        -0.9999781250953674,
        -1.0
      ],
      "type": "VEC3"
    },
    {
      "bufferView": 0,
      "componentType": 5125,
      "count": 294303,
      "type": "SCALAR"
    },
    {
      "bufferView": 1,
      "byteOffset": 1572768,
      "componentType": 5126,
      "count": 65532,
      "max": [
        0.44633013010025024,
        0.5231820344924927,
        1.7886278629302979
      ],
      "min": [
        -0.5420883297920227,
        -0.3768402934074402,
        -0.07643043994903564
      ],
      "type": "VEC3"
    },
    {
      "bufferView": 1,
      "byteOffset": 2359152,
      "componentType": 5126,
      "count": 65532,
      "max": [
        0.9999893307685852,
        0.9999644756317139,
        1.0
      ],
      "min": [
        -0.9999538064002991,
        -0.9999973177909851,
        -0.9999672770500183
      ],
      "type": "VEC3"
    },
    {
      "bufferView": 0,
      "byteOffset": 1177212,
      "componentType": 5125,
      "count": 303390,
      "type": "SCALAR"
    },
    {
      "bufferView": 1,
      "byteOffset": 3145536,
      "componentType": 5126,
      "count": 65532,
      "max": [
        0.3731791079044342,
        0.5630703568458557,
        1.8011126518249512
      ],
      "min": [
        -0.5834109783172607,
        -0.3834455609321594,
        -0.13832469284534454
      ],
      "type": "VEC3"
    },
    {
      "bufferView": 1,
      "byteOffset": 3931920,
      "componentType": 5126,
      "count": 65532,
      "max": [
        0.9999640583992004,
        0.9999987483024597,
        0.9999998211860657
      ],
      "min": [
        -0.9999712705612183,
        -0.9999838471412659,
        -1.0
      ],
      "type": "VEC3"
    },
    {
      "bufferView": 0,
      "byteOffset": 2390772,
      "componentType": 5125,
      "count": 309723,
      "type": "SCALAR"
    },
    {
      "bufferView": 1,
      "byteOffset": 4718304,
      "componentType": 5126,
      "count": 65532,
      "max": [
        0.4449589252471924,
        0.46892574429512024,
        1.8111916780471802
      ],
      "min": [
        -0.5683184862136841,
        -0.39010685682296753,
        -0.11936149001121521
      ],
      "type": "VEC3"
    },
    {
      "bufferView": 1,
      "byteOffset": 5504688,
      "componentType": 5126,
      "count": 65532,
      "max": [
        0.9999836087226868,
        0.9999866485595703,
        1.0
      ],
      "min": [
        -0.9999997019767761,
        -0.9999685883522034,
        -0.999779224395752
      ],
      "type": "VEC3"
    },
    {
      "bufferView": 0,
      "byteOffset": 3629664,
      "componentType": 5125,
      "count": 310233,
      "type": "SCALAR"
    },
    {
      "bufferView": 1,
      "byteOffset": 6291072,
      "componentType": 5126,
      "count": 65532,
      "max": [
        0.4532369077205658,
        0.5863979458808899,
        1.8093336820602417
      ],
      "min": [
        -0.5670719742774963,
        -0.23897871375083923,
        -0.13833533227443695
      ],
      "type": "VEC3"
    },
    {
      "bufferView": 1,
      "byteOffset": 7077456,
      "componentType": 5126,
      "count": 65532,
      "max": [
        0.999986469745636,
        0.9999911785125732,
        0.9999997019767761
      ],
      "min": [
        -0.999991774559021,
        -0.9999957084655762,
        -1.0
      ],
      "type": "VEC3"
    },
    {
      "bufferView": 0,
      "byteOffset": 4870596,
      "componentType": 5125,
      "count": 307392,
      "type": "SCALAR"
    },
    {
      "bufferView": 1,
      "byteOffset": 7863840,
      "componentType": 5126,
      "count": 65532,
      "max": [
        0.45509183406829834,
        0.5694472193717957,
        1.8149356842041016
      ],
      "min": [
        -0.5666179060935974,
        -0.3908073306083679,
        -0.11935342103242874
      ],
      "type": "VEC3"
    },
    {
      "bufferView": 1,
      "byteOffset": 8650224,
      "componentType": 5126,
      "count": 65532,
      "max": [
        0.9999790191650391,
        0.9999998211860657,
        0.9999999403953552
      ],
      "min": [
        -0.9999674558639526,
        -0.9999891519546509,
        -0.9999915361404419
      ],
      "type": "VEC3"
    },
    {
      "bufferView": 0,
      "byteOffset": 6100164,
      "componentType": 5125,
      "count": 308199,
      "type": "SCALAR"
    },
    {
      "bufferView": 1,
      "byteOffset": 9436608,
      "componentType": 5126,
      "count": 65532,
      "max": [
        0.45624008774757385,
        0.5567872524261475,
        1.8180665969848633
      ],
      "min": [
        -0.5515745878219604,
        -0.3870830535888672,
        -0.13832929730415344
      ],
      "type": "VEC3"
    },
    {
      "bufferView": 1,
      "byteOffset": 10222992,
      "componentType": 5126,
      "count": 65532,
      "max": [
        0.9999997019767761,
        0.9999558329582214,
        0.9999998211860657
      ],
      "min": [
        -0.9999474883079529,
        -0.9999849796295166,
        -1.0
      ],
      "type": "VEC3"
    },
    {
      "bufferView": 0,
      "byteOffset": 7332960,
      "componentType": 5125,
      "count": 308823,
      "type": "SCALAR"
    },
    {
      "bufferView": 1,
      "byteOffset": 11009376,
      "componentType": 5126,
      "count": 65532,
      "max": [
        0.45294106006622314,
        0.5359862446784973,
        1.8119287490844727
      ],
      "min": [
        -0.5834946036338806,
        -0.3902907967567444,
        -0.13832597434520721
      ],
      "type": "VEC3"
    },
    {
      "bufferView": 1,
      "byteOffset": 11795760,
      "componentType": 5126,
      "count": 65532,
      "max": [
        0.9999992847442627,
        0.9999935030937195,
        0.9999998211860657
      ],
      "min": [
        -0.9999864101409912,
        -1.0,
        -1.0
      ],
      "type": "VEC3"
    },
    {
      "bufferView": 0,
      "byteOffset": 8568252,
      "componentType": 5125,
      "count": 304956,
      "type": "SCALAR"
    },
    {
      "bufferView": 1,
      "byteOffset": 12582144,
      "componentType": 5126,
      "count": 65532,
      "max": [
        0.45056506991386414,
        0.5763441920280457,
        1.8153555393218994
      ],
      "min": [
        -0.5791447162628174,
        -0.37577733397483826,
        -0.13833953440189362
      ],
      "type": "VEC3"
    },
    {
      "bufferView": 1,
      "byteOffset": 13368528,
      "componentType": 5126,
      "count": 65532,
      "max": [
        0.9999783039093018,
        0.9999732375144958,
        1.0
      ],
      "min": [
        -0.9999997019767761,
        -0.9999929070472717,
        -1.0
      ],
      "type": "VEC3"
    },
    {
      "bufferView": 0,
      "byteOffset": 9788076,
      "componentType": 5125,
      "count": 280476,
      "type": "SCALAR"
    },
    {
      "bufferView": 1,
      "byteOffset": 14154912,
      "componentType": 5126,
      "count": 65532,
      "max": [
        0.4539237916469574,
        0.5859106183052063,
        1.8180235624313354
      ],
      "min": [
        -0.5822887420654297,
        -0.391988068819046,
        -0.13833561539649963
      ],
      "type": "VEC3"
    },
    {
      "bufferView": 1,
      "byteOffset": 14941296,
      "componentType": 5126,
      "count": 65532,
      "max": [
        0.999986469745636,
        0.9999289512634277,
        0.9999997019767761
      ],
      "min": [
        -0.9998505115509033,
        -0.9999551773071289,
        -1.0
      ],
      "type": "VEC3"
    },
    {
      "bufferView": 0,
      "byteOffset": 10909980,
      "componentType": 5125,
      "count": 225552,
      "type": "SCALAR"
    },
    {
      "bufferView": 1,
      "byteOffset": 15727680,
      "componentType": 5126,
      "count": 65533,
      "max": [
        0.45624008774757385,
        0.586483895778656,
        1.8180665969848633
      ],
      "min": [
        -0.5822214484214783,
        -0.3915175497531891,
        -0.13833533227443695
      ],
      "type": "VEC3"
    },
    {
      "bufferView": 1,
      "byteOffset": 16514076,
      "componentType": 5126,
      "count": 65533,
      "max": [
        0.999951183795929,
        0.9999853372573853,
        1.0
      ],
      "min": [
        -0.9999997019767761,
        -1.0,
        -1.0
      ],
      "type": "VEC3"
    },
    {
      "bufferView": 0,
      "byteOffset": 11812188,
      "componentType": 5125,
      "count": 143439,
      "type": "SCALAR"
    },
    {
      "bufferView": 1,
      "byteOffset": 17300472,
      "componentType": 5126,
      "count": 21012,
      "max": [
        0.4542250633239746,
        0.581009030342102,
        1.8176040649414063
      ],
      "min": [
        -0.5821353197097778,
        -0.36961600184440613,
        -0.13831794261932373
      ],
      "type": "VEC3"
    },
    {
      "bufferView": 1,
      "byteOffset": 17552616,
      "componentType": 5126,
      "count": 21012,
      "max": [
        0.9999836087226868,
        0.9999762177467346,
        0.9999998807907104
      ],
      "min": [
        -0.9989709258079529,
        -0.9999487400054932,
        -1.0
      ],
      "type": "VEC3"
    },
    {
      "bufferView": 0,
      "byteOffset": 12385944,
      "componentType": 5125,
      "count": 28020,
      "type": "SCALAR"
    }
  ],
  "asset": {
    "extras": {
      "author": "abauerenator (https://sketchfab.com/abauerenator)",
      "license": "SKETCHFAB Standard (https://sketchfab.com/licenses)",
      "source": "https://sketchfab.com/3d-models/earth-gaia-statue-greek-myth-goddess-66fd3b404c7c425ba1e8e6804f34803d",
      "title": "Earth Gaia Statue Greek Myth  Goddess"
    },
    "generator": "Sketchfab-15.25.0",
    "version": "2.0"
  },
  "bufferViews": [
    {
      "buffer": 0,
      "byteLength": 12498024,
      "name": "floatBufferViews",
      "target": 34963
    },
    {
      "buffer": 0,
      "byteLength": 17804760,
      "byteOffset": 12498024,
      "byteStride": 12,
      "name": "floatBufferViews",
      "target": 34962
    }
  ],
  "buffers": [
    {
      "byteLength": 30302784,
      "uri": "scene.bin"
    }
  ],
  "extensionsUsed": [
    "KHR_materials_clearcoat",
    "KHR_materials_specular"
  ],
  "materials": [
    {
      "doubleSided": true,
      "extensions": {
        "KHR_materials_clearcoat": {
          "clearcoatFactor": 0.4434299228340505,
          "clearcoatRoughnessFactor": 0.04
        },
        "KHR_materials_specular": {
          "specularColorFactor": [
            1.0,
            1.0,
            1.0
          ],
          "specularFactor": 1.0
        }
      },
      "name": "material_0",
      "pbrMetallicRoughness": {
        "baseColorFactor": [
          0.37434583521500636,
          0.25285523421843814,
          0.07545499192805939,
          1.0
        ],
        "roughnessFactor": 0.5104777462178932
      }
    }
  ],
  "meshes": [
    {
      "name": "Object_0",
      "primitives": [
        {
          "attributes": {
            "NORMAL": 1,
            "POSITION": 0
          },
          "indices": 2,
          "material": 0,
          "mode": 4
        }
      ]
    },
    {
      "name": "Object_1",
      "primitives": [
        {
          "attributes": {
            "NORMAL": 4,
            "POSITION": 3
          },
          "indices": 5,
          "material": 0,
          "mode": 4
        }
      ]
    },
    {
      "name": "Object_2",
      "primitives": [
        {
          "attributes": {
            "NORMAL": 7,
            "POSITION": 6
          },
          "indices": 8,
          "material": 0,
          "mode": 4
        }
      ]
    },
    {
      "name": "Object_3",
      "primitives": [
        {
          "attributes": {
            "NORMAL": 10,
            "POSITION": 9
          },
          "indices": 11,
          "material": 0,
          "mode": 4
        }
      ]
    },
    {
      "name": "Object_4",
      "primitives": [
        {
          "attributes": {
            "NORMAL": 13,
            "POSITION": 12
          },
          "indices": 14,
          "material": 0,
          "mode": 4
        }
      ]
    },
    {
      "name": "Object_5",
      "primitives": [
        {
          "attributes": {
            "NORMAL": 16,
            "POSITION": 15
          },
          "indices": 17,
          "material": 0,
          "mode": 4
        }
      ]
    },
    {
      "name": "Object_6",
      "primitives": [
        {
          "attributes": {
            "NORMAL": 19,
            "POSITION": 18
          },
          "indices": 20,
          "material": 0,
          "mode": 4
        }
      ]
    },
    {
      "name": "Object_7",
      "primitives": [
        {
          "attributes": {
            "NORMAL": 22,
            "POSITION": 21
          },
          "indices": 23,
          "material": 0,
          "mode": 4
        }
      ]
    },
    {
      "name": "Object_8",
      "primitives": [
        {
          "attributes": {
            "NORMAL": 25,
            "POSITION": 24
          },
          "indices": 26,
          "material": 0,
          "mode": 4
        }
      ]
    },
    {
      "name": "Object_9",
      "primitives": [
        {
          "attributes": {
            "NORMAL": 28,
            "POSITION": 27
          },
          "indices": 29,
          "material": 0,
          "mode": 4
        }
      ]
    },
    {
      "name": "Object_10",
      "primitives": [
        {
          "attributes": {
            "NORMAL": 31,
            "POSITION": 30
          },
          "indices": 32,
          "material": 0,
          "mode": 4
        }
      ]
    },
    {
      "name": "Object_11",
      "primitives": [
        {
          "attributes": {
            "NORMAL": 34,
            "POSITION": 33
          },
          "indices": 35,
          "material": 0,
          "mode": 4
        }
      ]
    }
  ],
  "nodes": [
    {
      "children": [
        1
      ],
      "matrix": [
        1.0,
        0.0,
        0.0,
        0.0,
        0.0,
        2.220446049250313e-16,
        -1.0,
        0.0,
        0.0,
        1.0,
        2.220446049250313e-16,
        0.0,
        0.0,
        0.0,
        0.0,
        1.0
      ],
      "name": "Sketchfab_model"
    },
    {
      "children": [
        2,
        3,
        4,
        5,
        6,
        7,
        8,
        9,
        10,
        11,
        12,
        13
      ],
      "name": "SubTool-0-13026945.obj"
    },
    {
      "mesh": 0,
      "name": "Object_2"
    },
    {
      "mesh": 1,
      "name": "Object_3"
    },
    {
      "mesh": 2,
      "name": "Object_4"
    },
    {
      "mesh": 3,
      "name": "Object_5"
    },
    {
      "mesh": 4,
      "name": "Object_6"
    },
    {
      "mesh": 5,
      "name": "Object_7"
    },
    {
      "mesh": 6,
      "name": "Object_8"
    },
    {
      "mesh": 7,
      "name": "Object_9"
    },
    {
      "mesh": 8,
      "name": "Object_10"
    },
    {
      "mesh": 9,
      "name": "Object_11"
    },
    {
      "mesh": 10,
      "name": "Object_12"
    },
    {
      "mesh": 11,
      "name": "Object_13"
    }
  ],
  "scene": 0,
  "scenes": [
    {
      "name": "Sketchfab_Scene",
      "nodes": [
        0
      ]
    }
  ]
}
