<svg xmlns="http://www.w3.org/2000/svg" version="1.1" xmlns:xlink="http://www.w3.org/1999/xlink" xmlns:svgjs="http://svgjs.dev/svgjs" width="1000" height="345" viewBox="0 0 1000 345"><g transform="matrix(1,0,0,1,-0.6060559333099604,0.4934287220558815)"><svg viewBox="0 0 396 137" data-background-color="#ffffff" preserveAspectRatio="xMidYMid meet" height="345" width="1000" xmlns="http://www.w3.org/2000/svg" xmlns:xlink="http://www.w3.org/1999/xlink"><g id="tight-bounds" transform="matrix(1,0,0,1,0.23999814959074683,-0.19594126064248485)"><svg viewBox="0 0 395.52 137.39188252128497" height="137.39188252128497" width="395.52"><g><svg viewBox="0 0 395.52 137.39188252128497" height="137.39188252128497" width="395.52"><g><svg viewBox="0 0 678.8265239143476 235.80414144916134" height="137.39188252128497" width="395.52"><g><rect width="7.821769339228222" height="235.80414144916134" x="255.0089186085534" y="0" fill="#8abe53" opacity="1" stroke-width="0" stroke="transparent" fill-opacity="1" class="rect-o-0" data-fill-palette-color="primary" rx="1%" id="o-0" data-palette-color="#8abe53"></rect></g><g transform="matrix(1,0,0,1,283.3065239143476,0.5865774662914305)"><svg viewBox="0 0 395.52 234.63098651657847" height="234.63098651657847" width="395.52"><g id="textblocktransform"><svg viewBox="0 0 395.52 234.63098651657847" height="234.63098651657847" width="395.52" id="textblock"><g><svg viewBox="0 0 395.52 188.91438029556647" height="188.91438029556647" width="395.52"><g transform="matrix(1,0,0,1,0,0)"><svg width="395.52" viewBox="1.780001163482666 -33.08000183105469 155.58999633789062 70.3800048828125" height="188.91438029556647" data-palette-color="#8abe53"><svg></svg><svg></svg><g class="wordmark-text-0" data-fill-palette-color="primary" id="text-0"><path xmlns="http://www.w3.org/2000/svg" d="M3.74 0v-32.64c2.26-0.293 4.577-0.44 6.95-0.44v0c4.427 0 7.793 1.037 10.1 3.11 2.3 2.073 3.45 5.18 3.45 9.32v0c0 3.693-1.26 6.613-3.78 8.76v0c-2.36 2.02-5.397 3.03-9.11 3.03v0c-0.42 0-0.883-0.027-1.39-0.08v0 8.94zM11.43-27.2v0c-0.493 0-0.983 0.017-1.47 0.05v0 12.84c0.52 0.067 1.157 0.1 1.91 0.1 0.747 0 1.527-0.16 2.34-0.48 0.813-0.313 1.497-0.757 2.05-1.33v0c1.153-1.187 1.73-2.747 1.73-4.68v0c0-4.333-2.187-6.5-6.56-6.5zM36.33 0h-2.32c-2.393 0-3.98 0.05-4.76 0.15v0-32.77c0.387 0.1 1.197 0.15 2.43 0.15 1.227 0 2.653-0.033 4.28-0.1v0 26.71h5.06c1.46 0 2.63-0.05 3.51-0.15v0c-0.113 3.813-0.17 5.793-0.17 5.94v0 0.24c-1.593-0.113-4.27-0.17-8.03-0.17zM54.79-7.03l-2.3 7.23c-1.4-0.133-3.037-0.2-4.91-0.2v0h-1.93l10.62-29.76c0.473-1.333 0.71-2.11 0.71-2.33 0-0.22-0.007-0.357-0.02-0.41v0l0.02-0.04c1.06 0.047 2.183 0.07 3.37 0.07v0c0.98 0 2.153-0.017 3.52-0.05v0l0.02 0.05c-0.033 0.067-0.05 0.157-0.05 0.27v0c0 0.307 0.247 1.127 0.74 2.46v0l10.84 29.81c-0.327-0.013-0.71-0.02-1.15-0.02v0c0 0-0.423-0.017-1.27-0.05v0c-0.407 0-0.773 0-1.1 0v0h-3.78l-2.3-7.03zM56.64-12.89h7.28l-3.69-11.35zM85.94 0h-6.37c0.093-0.553 0.14-1.157 0.14-1.81v0-30.66h4.88l12.94 20.36v-18.7c0-0.893-0.08-1.447-0.24-1.66v0h6.59c-0.08 0.653-0.12 1.37-0.12 2.15v0 30.32h-5.08l-12.74-19.56zM118.9-5.86h9.96c1.007 0 1.707-0.097 2.1-0.29v0l0.09 0.02-0.24 6.13h-18.29v-32.64c0.44 0.033 0.93 0.057 1.47 0.07v0l1.71 0.05c1.14 0.033 2.377 0.05 3.71 0.05v0c3.727 0 7.413-0.067 11.06-0.2v0c-0.18 1.433-0.27 3.347-0.27 5.74v0c0 0.26 0.017 0.457 0.05 0.59v0l-0.05 0.07c-0.847-0.247-2.05-0.37-3.61-0.37v0h-7.69v6.23h5.78c1.793 0 2.87-0.05 3.23-0.15v0l0.07 6.03c-0.78-0.08-1.79-0.12-3.03-0.12v0h-6.05zM149.29-27v27.15c-0.78-0.1-2.79-0.15-6.03-0.15v0h-0.78v-27h-4.83c-1.433 0-2.28 0.073-2.54 0.22-0.26 0.147-0.463 0.277-0.61 0.39v0l-0.08-0.03v-6.25l0.08-0.07c0.533 0.18 1.98 0.27 4.34 0.27v0h15.31c1.433 0 2.28-0.073 2.54-0.22 0.26-0.147 0.463-0.277 0.61-0.39v0l0.07 0.02v6.25l-0.07 0.08c-0.54-0.18-1.99-0.27-4.35-0.27v0z" fill="#8abe53" fill-rule="nonzero" stroke="none" stroke-width="1" stroke-linecap="butt" stroke-linejoin="miter" stroke-miterlimit="10" stroke-dasharray="" stroke-dashoffset="0" font-family="none" font-weight="none" font-size="none" text-anchor="none" style="mix-blend-mode: normal" data-fill-palette-color="primary" opacity="1"></path><path xmlns="http://www.w3.org/2000/svg" d="M30.88 17.06l0.08 0.05c-0.313 0.553-0.47 1.88-0.47 3.98v0 7.57c0 2.293-1.187 4.287-3.56 5.98v0c-2.46 1.773-5.47 2.66-9.03 2.66v0c-4.953 0-8.903-1.553-11.85-4.66v0c-2.847-2.967-4.27-6.743-4.27-11.33v0c0-4.887 1.45-8.957 4.35-12.21v0c3.24-3.66 7.7-5.49 13.38-5.49v0c3.793 0 6.797 0.733 9.01 2.2v0l-0.39 7.2-0.2 0.05c-0.567-0.993-1.69-1.807-3.37-2.44v0c-1.593-0.607-3.267-0.91-5.02-0.91-1.747 0-3.277 0.277-4.59 0.83-1.307 0.553-2.417 1.343-3.33 2.37v0c-1.92 2.1-2.88 4.877-2.88 8.33v0c0 3.007 0.847 5.423 2.54 7.25v0c1.693 1.807 3.873 2.71 6.54 2.71v0c2.947 0 4.933-0.767 5.96-2.3v0c0.327-0.487 0.49-1.04 0.49-1.66v0-4.05h-3.15c-1.693 0-2.613 0.147-2.76 0.44v0l-0.07-0.03-0.22-6.37c0.453 0.133 2.3 0.2 5.54 0.2v0h2.88c1.787 0 3.25-0.123 4.39-0.37zM42.16 29.66l-2.29 7.23c-1.4-0.133-3.037-0.2-4.91-0.2v0h-1.93l10.62-29.76c0.473-1.333 0.71-2.11 0.71-2.33 0-0.22-0.007-0.357-0.02-0.41v0l0.02-0.04c1.06 0.047 2.183 0.07 3.37 0.07v0c0.973 0 2.147-0.017 3.52-0.05v0l0.02 0.05c-0.033 0.067-0.05 0.157-0.05 0.27v0c0 0.307 0.243 1.127 0.73 2.46v0l10.84 29.81c-0.327-0.013-0.707-0.02-1.14-0.02v0c0 0-0.423-0.017-1.27-0.05v0c-0.407 0-0.773 0-1.1 0v0h-3.79l-2.29-7.03zM44.02 23.8h7.27l-3.68-11.35zM67.48 36.69v-32.57c1.627 0.067 2.61 0.1 2.95 0.1v0h1.76c0.867 0 1.56-0.067 2.08-0.2v0l-0.03 32.67zM88.09 29.66l-2.3 7.23c-1.4-0.133-3.037-0.2-4.91-0.2v0h-1.92l10.62-29.76c0.467-1.333 0.7-2.11 0.7-2.33 0-0.22-0.007-0.357-0.02-0.41v0l0.02-0.04c1.06 0.047 2.183 0.07 3.37 0.07v0c0.98 0 2.153-0.017 3.52-0.05v0l0.02 0.05c-0.033 0.067-0.05 0.157-0.05 0.27v0c0 0.307 0.247 1.127 0.74 2.46v0l10.84 29.81c-0.327-0.013-0.71-0.02-1.15-0.02v0c0 0-0.423-0.017-1.27-0.05v0c-0.407 0-0.773 0-1.1 0v0h-3.78l-2.3-7.03zM89.94 23.8h7.28l-3.69-11.35z" fill="#8abe53" fill-rule="nonzero" stroke="none" stroke-width="1" stroke-linecap="butt" stroke-linejoin="miter" stroke-miterlimit="10" stroke-dasharray="" stroke-dashoffset="0" font-family="none" font-weight="none" font-size="none" text-anchor="none" style="mix-blend-mode: normal" data-fill-palette-color="primary" opacity="1"></path></g></svg></g></svg></g><g transform="matrix(1,0,0,1,0,209.3902162621325)"><svg viewBox="0 0 232.20979200000002 25.240770254445966" height="25.240770254445966" width="232.20979200000002"><g transform="matrix(1,0,0,1,0,0)"><svg width="232.20979200000002" viewBox="1.340000033378601 -36.54999923706055 428.2799987792969 46.55999755859375" height="25.240770254445966" data-palette-color="#9fa6b2"><path d="M27.49-9.69L31.2-3.59Q28.76-1.49 25.73-0.37 22.71 0.76 19.46 0.76L19.46 0.76Q16.97 0.76 14.66 0.11 12.35-0.54 10.34-1.72 8.33-2.91 6.67-4.57 5-6.23 3.82-8.24 2.64-10.25 1.99-12.56 1.34-14.87 1.34-17.36L1.34-17.36Q1.34-19.85 1.99-22.17 2.64-24.49 3.82-26.5 5-28.52 6.67-30.18 8.33-31.84 10.34-33.02 12.35-34.2 14.66-34.85 16.97-35.5 19.46-35.5L19.46-35.5Q22.71-35.5 25.73-34.39 28.76-33.28 31.2-31.15L31.2-31.15 27.49-25.05Q25.95-26.71 23.85-27.6 21.75-28.49 19.46-28.49L19.46-28.49Q17.14-28.49 15.11-27.61 13.09-26.73 11.57-25.23 10.06-23.73 9.18-21.69 8.3-19.65 8.3-17.36L8.3-17.36Q8.3-15.06 9.18-13.05 10.06-11.04 11.57-9.52 13.09-8.01 15.11-7.13 17.14-6.25 19.46-6.25L19.46-6.25Q21.75-6.25 23.85-7.14 25.95-8.03 27.49-9.69L27.49-9.69ZM41.21-14.94L41.21 0 34.54 0 34.54-36.55 41.21-36.55 41.21-25Q42.4-25.9 43.67-26.28 44.94-26.66 46.26-26.66L46.26-26.66Q48.68-26.66 50.8-25.74 52.93-24.83 54.5-23.23 56.08-21.63 56.99-19.49 57.91-17.36 57.91-14.94L57.91-14.94 57.91 0 51.19 0 51.19-14.94 51.24-14.94Q51.24-15.97 50.85-16.88 50.46-17.8 49.78-18.48 49.09-19.17 48.19-19.56 47.29-19.95 46.26-19.95L46.26-19.95Q45.21-19.95 44.28-19.56 43.36-19.17 42.67-18.48 41.99-17.8 41.6-16.88 41.21-15.97 41.21-14.94L41.21-14.94ZM87.96-26.1L87.96 0 86.35 0 83.76-3.59Q82.81-2.73 81.75-1.99 80.68-1.25 79.51-0.7 78.34-0.15 77.11 0.17 75.87 0.49 74.6 0.49L74.6 0.49Q71.85 0.49 69.42-0.44 66.99-1.37 65.17-3.14 63.35-4.91 62.3-7.47 61.25-10.03 61.25-13.31L61.25-13.31Q61.25-16.36 62.3-18.91 63.35-21.46 65.17-23.29 66.99-25.12 69.42-26.14 71.85-27.15 74.6-27.15L74.6-27.15Q75.87-27.15 77.12-26.83 78.36-26.51 79.54-25.95 80.71-25.39 81.77-24.63 82.83-23.88 83.76-23L83.76-23 86.35-26.1 87.96-26.1ZM81.25-13.31L81.25-13.31Q81.25-14.67 80.72-15.95 80.2-17.24 79.29-18.23 78.39-19.21 77.18-19.81 75.97-20.41 74.6-20.41L74.6-20.41Q73.24-20.41 72.03-19.95 70.82-19.48 69.93-18.58 69.04-17.68 68.53-16.35 68.01-15.01 68.01-13.31L68.01-13.31Q68.01-11.6 68.53-10.27 69.04-8.94 69.93-8.03 70.82-7.13 72.03-6.67 73.24-6.2 74.6-6.2L74.6-6.2Q75.97-6.2 77.18-6.8 78.39-7.4 79.29-8.39 80.2-9.38 80.72-10.66 81.25-11.94 81.25-13.31ZM99.7-14.94L99.7 0 93.03 0 93.03-26.15 94.65-26.15 96.84-23.61Q98.45-25.07 100.49-25.87 102.53-26.66 104.75-26.66L104.75-26.66Q107.15-26.66 109.27-25.74 111.39-24.83 112.98-23.23 114.57-21.63 115.48-19.49 116.4-17.36 116.4-14.94L116.4-14.94 116.4 0 109.73 0 109.73-14.94Q109.73-15.97 109.34-16.88 108.95-17.8 108.27-18.48 107.59-19.17 106.68-19.56 105.78-19.95 104.75-19.95L104.75-19.95Q103.7-19.95 102.78-19.56 101.85-19.17 101.16-18.48 100.48-17.8 100.09-16.88 99.7-15.97 99.7-14.94L99.7-14.94ZM139.74-13.31L139.74-13.31Q139.74-14.67 139.21-15.95 138.69-17.24 137.78-18.23 136.88-19.21 135.67-19.81 134.46-20.41 133.1-20.41L133.1-20.41Q131.73-20.41 130.52-19.95 129.31-19.48 128.42-18.58 127.53-17.68 127.02-16.35 126.5-15.01 126.5-13.31L126.5-13.31Q126.5-11.67 127.02-10.36 127.53-9.06 128.42-8.13 129.31-7.2 130.52-6.7 131.73-6.2 133.1-6.2L133.1-6.2Q134.46-6.2 135.67-6.8 136.88-7.4 137.78-8.39 138.69-9.38 139.21-10.66 139.74-11.94 139.74-13.31ZM146.45-26.1L146.45-3.3Q146.45-0.54 145.4 1.88 144.35 4.3 142.53 6.1 140.71 7.91 138.28 8.96 135.85 10.01 133.1 10.01L133.1 10.01 129.75 9.96 129.75 3.3 133.05 3.34Q134.61 3.34 135.71 2.94 136.81 2.54 137.56 1.84 138.32 1.15 138.77 0.24 139.22-0.66 139.49-1.66L139.49-1.66Q139.1-1.03 138.37-0.62 137.64-0.22 136.75 0.04 135.85 0.29 134.89 0.39 133.93 0.49 133.1 0.49L133.1 0.49Q130.34 0.49 127.91-0.46 125.48-1.42 123.66-3.19 121.84-4.96 120.79-7.52 119.74-10.08 119.74-13.31L119.74-13.31Q119.74-16.26 120.79-18.8 121.84-21.34 123.66-23.19 125.48-25.05 127.91-26.1 130.34-27.15 133.1-27.15L133.1-27.15Q134.37-27.15 135.61-26.83 136.86-26.51 138.03-25.95 139.2-25.39 140.26-24.63 141.32-23.88 142.25-23L142.25-23 144.84-26.1 146.45-26.1ZM174.43-21.46L161.93-6.4Q162.32-6.27 162.71-6.24 163.1-6.2 163.49-6.2L163.49-6.2Q164.47-6.2 165.37-6.47 166.27-6.74 167.07-7.24 167.86-7.74 168.48-8.46 169.1-9.18 169.49-10.06L169.49-10.06 174.38-5.15Q173.45-3.83 172.24-2.78 171.03-1.73 169.63-1 168.22-0.27 166.67 0.11 165.12 0.49 163.49 0.49L163.49 0.49Q160.73 0.49 158.3-0.54 155.87-1.56 154.05-3.39 152.23-5.22 151.18-7.75 150.13-10.28 150.13-13.31L150.13-13.31Q150.13-16.41 151.18-18.97 152.23-21.53 154.05-23.34 155.87-25.15 158.3-26.15 160.73-27.15 163.49-27.15L163.49-27.15Q165.12-27.15 166.69-26.76 168.25-26.37 169.65-25.63 171.06-24.9 172.28-23.84 173.5-22.78 174.43-21.46L174.43-21.46ZM157.58-9.84L165.34-20.14Q164.88-20.31 164.43-20.36 163.98-20.41 163.49-20.41L163.49-20.41Q162.12-20.41 160.91-19.91 159.7-19.41 158.81-18.48 157.92-17.55 157.41-16.25 156.9-14.94 156.9-13.31L156.9-13.31Q156.9-12.94 156.93-12.48 156.97-12.01 157.06-11.54 157.14-11.06 157.26-10.62 157.38-10.18 157.58-9.84L157.58-9.84ZM209.92 0L204.87 0Q202.45 0 200.32-0.92 198.2-1.83 196.6-3.43 195-5.03 194.09-7.15 193.17-9.28 193.17-11.69L193.17-11.69 193.17-19.46 189.92-19.46 189.92-26.1 193.17-26.1 193.17-36.55 199.81-36.55 199.81-26.1 209.92-26.1 209.92-19.46 199.81-19.46 199.81-11.69Q199.81-10.64 200.2-9.73 200.59-8.81 201.28-8.13 201.96-7.45 202.89-7.04 203.82-6.64 204.87-6.64L204.87-6.64 209.92-6.64 209.92 0ZM220.32-14.94L220.32 0 213.65 0 213.65-36.55 220.32-36.55 220.32-25Q221.51-25.9 222.78-26.28 224.05-26.66 225.37-26.66L225.37-26.66Q227.79-26.66 229.91-25.74 232.04-24.83 233.61-23.23 235.19-21.63 236.1-19.49 237.02-17.36 237.02-14.94L237.02-14.94 237.02 0 230.3 0 230.3-14.94 230.35-14.94Q230.35-15.97 229.96-16.88 229.57-17.8 228.89-18.48 228.2-19.17 227.3-19.56 226.4-19.95 225.37-19.95L225.37-19.95Q224.32-19.95 223.39-19.56 222.47-19.17 221.78-18.48 221.1-17.8 220.71-16.88 220.32-15.97 220.32-14.94L220.32-14.94ZM264.65-21.46L252.15-6.4Q252.54-6.27 252.93-6.24 253.32-6.2 253.71-6.2L253.71-6.2Q254.69-6.2 255.59-6.47 256.5-6.74 257.29-7.24 258.08-7.74 258.71-8.46 259.33-9.18 259.72-10.06L259.72-10.06 264.6-5.15Q263.67-3.83 262.47-2.78 261.26-1.73 259.85-1 258.45-0.27 256.9 0.11 255.35 0.49 253.71 0.49L253.71 0.49Q250.95 0.49 248.52-0.54 246.1-1.56 244.28-3.39 242.46-5.22 241.41-7.75 240.36-10.28 240.36-13.31L240.36-13.31Q240.36-16.41 241.41-18.97 242.46-21.53 244.28-23.34 246.1-25.15 248.52-26.15 250.95-27.15 253.71-27.15L253.71-27.15Q255.35-27.15 256.91-26.76 258.47-26.37 259.88-25.63 261.28-24.9 262.5-23.84 263.72-22.78 264.65-21.46L264.65-21.46ZM247.8-9.84L255.57-20.14Q255.1-20.31 254.65-20.36 254.2-20.41 253.71-20.41L253.71-20.41Q252.35-20.41 251.14-19.91 249.93-19.41 249.04-18.48 248.15-17.55 247.63-16.25 247.12-14.94 247.12-13.31L247.12-13.31Q247.12-12.94 247.16-12.48 247.19-12.01 247.28-11.54 247.37-11.06 247.49-10.62 247.61-10.18 247.8-9.84L247.8-9.84ZM289.69-13.99L289.69 0 282.69 0 282.69-35.01 307.2-35.01 307.2-28 289.69-28 289.69-21 300.19-21 300.19-13.99 289.69-13.99ZM329.83 0L327.63-3.05Q326.83-2.32 325.91-1.67 324.99-1.03 323.99-0.55 322.99-0.07 321.93 0.21 320.87 0.49 319.77 0.49L319.77 0.49Q317.35 0.49 315.23-0.37 313.1-1.22 311.51-2.8 309.91-4.37 308.99-6.63 308.08-8.89 308.08-11.69L308.08-11.69 308.08-26.15 314.72-26.15 314.72-11.69Q314.72-10.38 315.12-9.34 315.52-8.3 316.21-7.59 316.89-6.88 317.8-6.52 318.72-6.15 319.77-6.15L319.77-6.15Q320.8-6.15 321.71-6.63 322.63-7.1 323.31-7.89 323.99-8.67 324.38-9.66 324.77-10.64 324.77-11.69L324.77-11.69 324.77-26.15 331.44-26.15 331.44 0 329.83 0ZM354.68 0L349.63 0Q347.21 0 345.08-0.92 342.96-1.83 341.36-3.43 339.76-5.03 338.85-7.15 337.93-9.28 337.93-11.69L337.93-11.69 337.93-19.46 334.68-19.46 334.68-26.1 337.93-26.1 337.93-36.55 344.57-36.55 344.57-26.1 354.68-26.1 354.68-19.46 344.57-19.46 344.57-11.69Q344.57-10.64 344.96-9.73 345.35-8.81 346.04-8.13 346.72-7.45 347.65-7.04 348.58-6.64 349.63-6.64L349.63-6.64 354.68-6.64 354.68 0ZM379.82 0L377.63-3.05Q376.82-2.32 375.9-1.67 374.99-1.03 373.99-0.55 372.99-0.07 371.93 0.21 370.86 0.49 369.76 0.49L369.76 0.49Q367.35 0.49 365.22-0.37 363.1-1.22 361.5-2.8 359.9-4.37 358.99-6.63 358.07-8.89 358.07-11.69L358.07-11.69 358.07-26.15 364.71-26.15 364.71-11.69Q364.71-10.38 365.11-9.34 365.52-8.3 366.2-7.59 366.88-6.88 367.8-6.52 368.72-6.15 369.76-6.15L369.76-6.15Q370.79-6.15 371.71-6.63 372.62-7.1 373.3-7.89 373.99-8.67 374.38-9.66 374.77-10.64 374.77-11.69L374.77-11.69 374.77-26.15 381.43-26.15 381.43 0 379.82 0ZM393.18-14.4L393.18 0 386.51 0 386.51-26.15 388.12-26.15 390.32-23.05Q391.93-24.51 393.98-25.31 396.03-26.1 398.23-26.1L398.23-26.1 404.11-26.1 404.11-19.46 398.23-19.46Q397.18-19.46 396.25-19.07 395.32-18.68 394.64-17.99 393.96-17.31 393.57-16.38 393.18-15.45 393.18-14.4L393.18-14.4ZM429.62-21.46L417.12-6.4Q417.51-6.27 417.9-6.24 418.29-6.2 418.69-6.2L418.69-6.2Q419.66-6.2 420.57-6.47 421.47-6.74 422.26-7.24 423.06-7.74 423.68-8.46 424.3-9.18 424.69-10.06L424.69-10.06 429.57-5.15Q428.65-3.83 427.44-2.78 426.23-1.73 424.83-1 423.42-0.27 421.87 0.11 420.32 0.49 418.69 0.49L418.69 0.49Q415.93 0.49 413.5-0.54 411.07-1.56 409.25-3.39 407.43-5.22 406.38-7.75 405.33-10.28 405.33-13.31L405.33-13.31Q405.33-16.41 406.38-18.97 407.43-21.53 409.25-23.34 411.07-25.15 413.5-26.15 415.93-27.15 418.69-27.15L418.69-27.15Q420.32-27.15 421.88-26.76 423.45-26.37 424.85-25.63 426.25-24.9 427.47-23.84 428.7-22.78 429.62-21.46L429.62-21.46ZM412.78-9.84L420.54-20.14Q420.08-20.31 419.63-20.36 419.17-20.41 418.69-20.41L418.69-20.41Q417.32-20.41 416.11-19.91 414.9-19.41 414.01-18.48 413.12-17.55 412.61-16.25 412.09-14.94 412.09-13.31L412.09-13.31Q412.09-12.94 412.13-12.48 412.17-12.01 412.25-11.54 412.34-11.06 412.46-10.62 412.58-10.18 412.78-9.84L412.78-9.84Z" opacity="1" transform="matrix(1,0,0,1,0,0)" fill="#9fa6b2" class="slogan-text-1" data-fill-palette-color="secondary" id="text-1"></path></svg></g></svg></g></svg></g></svg></g><g transform="matrix(1,0,0,1,0,0.5865774662914305)"><svg viewBox="0 0 234.53308264198736 234.63098651657847" height="234.63098651657847" width="234.53308264198736"><g><svg xmlns="http://www.w3.org/2000/svg" xmlns:xlink="http://www.w3.org/1999/xlink" version="1.1" x="0" y="0" viewBox="4.105997085571289 5.670000076293945 88.62300872802734 88.66000366210938" enable-background="new 4.106 5.67 88.622 88.66" xml:space="preserve" width="234.53308264198736" height="234.63098651657847" class="icon-icon-0" data-fill-palette-color="accent" id="icon-0"><path fill="#398378" d="M48.417 5.67c-6.721 0-13.088 1.505-18.795 4.184 0.004-0.022 0.014-0.041 0.016-0.064-0.576 0.268-1.146 0.548-1.711 0.841 0.029 0.009 0.063 0.012 0.094 0.019-0.104 0.055-0.211 0.106-0.314 0.162-0.01-0.017-0.024-0.027-0.032-0.044-0.327 0.172-0.653 0.343-0.974 0.523 0.032 0.006 0.061 0.015 0.092 0.021-0.342 0.191-0.682 0.385-1.018 0.585-0.018-0.014-0.036-0.022-0.053-0.037 0.191-0.112 0.379-0.228 0.57-0.337-0.193 0.112-0.389 0.223-0.581 0.337 0.001 0.001 0.003 0.002 0.004 0.003-0.08 0.048-0.161 0.096-0.241 0.144 0.037-0.004 0.057 0.01 0.089 0.013-0.173 0.104-0.341 0.214-0.512 0.32 0.012-0.035 0.019-0.066 0.032-0.102 0 0-0.001 0-0.002 0.001 0-0.001 0.001-0.002 0.001-0.003-0.031 0.02-0.063 0.041-0.097 0.061 0.019-0.012 0.037-0.022 0.057-0.033-0.068 0.043-0.138 0.086-0.207 0.129 0.021-0.014 0.041-0.027 0.062-0.04-0.194 0.12-0.39 0.241-0.582 0.365 0.128-0.082 0.258-0.161 0.387-0.24-0.129 0.082-0.256 0.166-0.385 0.25 0 0.024 0.005 0.053 0.006 0.078-0.012 0.008-0.024 0.016-0.037 0.024-0.012-0.019-0.02-0.041-0.035-0.058 0.021-0.014 0.041-0.028 0.062-0.042 0.002-0.004 0-0.008 0-0.011-0.023 0.015-0.047 0.031-0.071 0.047 0.003 0.001 0.004 0.005 0.005 0.008-1.219 0.79-2.399 1.634-3.532 2.538 0.009 0.026 0.024 0.05 0.034 0.074C10.608 23.51 4.106 35.992 4.106 50c0 24.482 19.839 44.33 44.311 44.33 24.472 0 44.312-19.848 44.312-44.33C92.729 25.517 72.889 5.67 48.417 5.67zM80.229 20.456c0.045 0.075 0.098 0.142 0.139 0.219-1.158 0.338-1.061-0.576-2.047-0.408 0.414 0.715 0.709 2.192 1.637 1.227 0.082 0.546 0.561 0.174 0.996-0.234 6.285 7.116 10.279 16.303 10.814 26.412-0.531 0-1.061 0-1.588 0 2.58 4.011-2.924 5.74-5.316 7.363 0.729 1.693 2.34-0.518 3.271 0.408-0.402 4.1-3.299 5.697-5.316 8.182 0.102 3.109 0.217 3.945 0 6.953-4.158 2.84-4.428 11.6-11.043 10.633-1.096-2.994-1.139-7.043-2.455-9.816 2.725-3.924-1.109-6.549-0.818-11.451-0.549-0.678-2.146-0.305-2.045-1.637-2.551 0.881-4.385 0.521-6.953 0.818-1.842-1.021-2.58-3.146-4.09-4.498 1.379-3.963-0.869-8.164 3.682-9.817-0.219-4.865 7.52-5.636 10.633-4.498 0 0.545 0 1.09 0 1.635 1.605 0.306 2.367 1.453 3.682 2.045-0.068-1.024 0.631-1.281 1.229-1.637 1.248 0.793 0.939 1.918 2.863 1.229 0.719 0.234 2.402-0.495 2.453 0.409 0.607-0.347 0.592-1.317 0.818-2.046-0.375-1.396-2.518-1.027-3.684-1.635-0.559-0.522-0.559-1.932 0-2.455-2.604-0.19-0.42 1.975-2.043 2.455-0.273 0-0.545 0-0.818 0 0.352-1.306-0.643-1.265-0.818-2.045-1.217-0.101-1.553 2.771-2.861 1.227 2.91-0.479-1.648-4.118-2.045-2.454-0.07-0.612 0.146-1.509-0.41-1.636-1.453 0.453-2.395 1.422-3.682 2.045 0 0.545 0 1.091 0 1.636-0.361 0.183-0.73 0.36-0.816 0.817-1.229 0-2.455 0-3.684 0-0.02-0.522-0.521-0.566-0.408-1.229 0.602-0.898-0.047-3.047 1.229-3.271 1.176-0.57 2.078 1.115 2.453 0 0.139 0 0.271 0 0.41 0 0.182-1.543-0.809-1.92-1.229-2.862 0.045-0.772 1.354-0.284 1.229-1.228 3.486-0.193 3.588-3.774 5.727-5.316-0.344 0.475-0.541 1.096-0.408 2.044 1.506 0.376 0.742-2.157 0.408-2.454-0.949-0.13-1.57 0.065-2.045 0.41-0.568-0.524-0.25-1.931-0.818-2.456 2.586-2.321 3.361-6.455 7.771-6.952 1.316 0.323 2.502 0.776 3.52 1.399C78.609 18.774 79.434 19.6 80.229 20.456zM61.955 25.176c2.131 0.459 1.541 3.642 3.273 4.499 0 0.271 0 0.545 0 0.818-0.984-0.167-0.889 0.748-2.045 0.41-0.773-0.092-0.902 0.459-1.635 0.408C63.203 29.135 61.076 27.336 61.955 25.176zM61.549 30.083c-0.684 0-1.363 0-2.047 0-0.162-1.525 0.328-2.4 1.637-2.454C61.611 28.113 61.602 29.076 61.549 30.083zM55.004 21.495c-0.361-0.864-1.246-1.209-1.229-2.454 1.637 0.401 2.457 0.401 4.092 0 0.078 0.331 0.412 0.408 0.408 0.817C58.219 21.438 56.678 21.534 55.004 21.495zM52.549 23.949c-0.627 1.69-2.622 2.012-4.089 2.862-0.464-0.076-0.229-0.41 0-0.408-0.062-0.756-1.385-0.252-1.637-0.818C46.412 20.586 52.996 19.426 52.549 23.949zM83.635 75.076c-1.025-3.143 1.238-4.395 2.453-6.953 1.209 0.971-0.492 2.475-0.408 3.68-0.441 0.758-0.992 1.41-1.209 2.396-0.016 0.021-0.029 0.045-0.045 0.068C83.99 74.363 83.811 74.717 83.635 75.076zM55.08 7.075c-0.027 0.035-0.039 0.062-0.074 0.1 0.258 0.053 0.564 0.056 0.885 0.045 0.686 0.119 1.365 0.253 2.039 0.404-0.66 0.301-0.838 1.085-1.693 1.187-0.297 1.25 0.416 1.491 0.406 2.454-0.703 0.161-1.049-0.606-1.227 0 1.404 1.81-2.008 3.385 0 4.908-2.979 1.521-7.176 1.823-8.999 4.499-0.884 1.023-1.29 2.527-2.454 3.271-2.918-0.84-3.482-5.656-2.604-7.504 0.084-0.061 0.144-0.146 0.146-0.263-0.053 0.079-0.101 0.167-0.146 0.262-0.215 0.151-0.596 0.103-0.668-0.266 1.918-5.429-4.68-3.837-5.727-6.953 0.682-0.545 2.604 0.149 2.454-1.227C37.36 8 37.309 8.015 37.25 8.022c3.563-0.946 7.304-1.457 11.164-1.457C50.682 6.565 52.906 6.74 55.08 7.075zM28.014 11.658c0.828 0.27 1.514 0.427 2.448-0.388-0.534-0.032-1.171 0.038-1.708 0.009 1.929-0.982 3.939-1.824 6.021-2.513-1.586 0.821-2.635 2.179-3.491 3.729-1.911 0.186-3.4 0.375-4.607-0.085C27.12 12.152 27.563 11.898 28.014 11.658zM26.051 12.769c0.092 0.197 0.266 0.312 0.733 0.133-0.435 0.927-1.24 1.486-2.454 1.636 0.304-0.4 0.436-0.716 0.504-0.999C25.237 13.278 25.639 13.016 26.051 12.769zM21.321 16.074c0.049 0.034 0.096 0.071 0.146 0.101-0.097 1.128-1.52 0.934-2.044 1.637 2.743 0.813 2.856-2.451 4.499-0.41 0.168-0.984-0.747-0.889-0.408-2.043 0.522-0.022 0.566-0.525 1.228-0.409 0.2 2.331 1.526 1.28 2.044 2.862 0.087-0.459 0.454-0.638 0.818-0.817 0.435-1.525-1.535-0.647-1.227-2.045 0.057-2.262 3.453-1.182 4.908-2.045 0.007 0.676 1.134 0.229 1.227 0.818-0.537-0.053-2.959-0.062-1.636 0.409 4.175-0.328 4.11 2.779 6.544 4.909-0.804-0.123-0.812 0.552-1.229 0.816-0.543 0.062-1.233-1.662-1.635-0.407 0.895 0.06 0.879 1.03 0.817 2.045-2.028-0.667-0.231 0.049-1.228 0.817-1.527-0.791-2.703-1.933-4.5-2.455 1.004-0.358 2.358-0.367 2.455-1.635 0.304-1.26-1.125-0.785-0.818-2.045-0.6 0.004-3.348-0.154-2.045 0.41 0.336 1.834-1.174 1.826-1.637 2.863 0.6 0.355 1.297 0.613 1.228 1.636-0.329-0.216-0.664-0.426-1.228-0.409-0.515 0.102-0.412 0.814 0 0.818-0.074 0.691-1.943-0.189-1.637-1.227-1.938 0.65-2.891 2.289-4.089 3.681 0.351 1.558 1.907 1.911 3.271 2.454 0.33 0.217 0.666 0.427 1.229 0.408-0.296 1.251 0.418 1.49 0.408 2.454 1.395-3.288 2.595-2.441 2.455-7.771 0.348 0.074 0.386-0.16 0.408-0.409 0.402-0.035 0.972 1.08 2.455 0.817 1.039 0.324 0.221 2.506 1.635 2.455 1.324 0.506 0.312-1.323 1.637-0.819 1.281 3.818 3.506 5.762 4.09 9.408-1.25 0.296-1.49-0.418-2.453-0.408-1.43 0.365-0.699-1.334-0.41-1.637 0.588-0.229 0.998-0.639 1.228-1.228-1.542 0.388-2.771 2.538-4.09 0.818 0.338 1.155-0.576 1.06-0.409 2.045-0.076 0.348 0.159 0.386 0.409 0.409 0.317 0.091 0.808 0.01 0.817 0.408 0 0.138 0 0.272 0 0.41-1.945 1.258-7.017 2.709-7.771 7.362-1.199 0.026-1.519 0.935-2.044 1.636-0.867 0.365 0.809 2.861-0.41 3.682-0.989-0.512-1.322-1.678-1.637-2.863-3.719-2.158-10.463 4.661-4.09 6.136 0.137 0 0.273 0 0.41 0-0.148-1.297 2.244-1.832 2.452-0.409-0.606 0.348-0.879 1.028-0.817 2.043-0.069 0.889 1.451 0.188 2.045 0.41-0.115 1.812-0.868 3.379 1.227 3.68 0.318 0.092 0.809 0.012 0.819 0.41 1.606-0.166 1.747-1.797 3.272-2.045 0.916 0.85 2.641 1.199 5.316 1.227 0.574 2.562 3.68 2.592 5.316 4.092 0 0.68 0 1.361 0 2.045 2.922 0.76 5.078 2.285 7.771 3.27-0.385 3.844-2.917 5.537-2.861 9.818-1.1 0.539-2.176 1.098-3.273 1.635-0.379 2.689-2.146 5.939-4.5 5.316-0.167 0.986 0.748 0.889 0.408 2.047-4.189 1.184-3.257 3.732-3.928 7.059-1.065-0.428-2.11-0.893-3.133-1.4-1.623-3.189 1.092-9.072 0.112-14.887-0.763-4.531-7.209-7.143-6.065-12.537 0.729-0.889 1.577-1.658 2.021-2.832-2.943-4.334-8.721-5.838-12.94-8.896 0.118-2.275-0.71-3.604-2.022-4.448 0.068 1.146 0.742 1.685 0.811 2.83-2.847-2.78-3.883-7.165-4.004-11.327C9.67 28.554 14.706 21.369 21.321 16.074zM29.645 49.717c0.141 1.755-1.49 1.105-2.453 0.818C27.567 49.82 28.469 49.631 29.645 49.717zM22.283 48.08c1.108-1.787 3.901 0.715 4.909 1.638C24.965 49.761 24.634 47.909 22.283 48.08z" data-fill-palette-color="accent"></path></svg></g></svg></g></svg></g></svg></g><defs></defs></svg><rect width="395.52" height="137.39188252128497" fill="none" stroke="none" visibility="hidden"></rect></g></svg></g></svg>